<svg xmlns="http://www.w3.org/2000/svg" width="21" height="20" fill="none" viewBox="0 0 21 20"><path fill="#000" d="M16.0394 19.1976C14.9507 20.253 13.7619 20.0864 12.6176 19.5864C11.4067 19.0754 10.2957 19.0532 9.01809 19.5864C7.41829 20.2752 6.57395 20.0752 5.61852 19.1976C0.196981 13.6094 0.99688 5.09936 7.15166 4.78828C8.65147 4.86605 9.69578 5.6104 10.5734 5.67706C11.8844 5.41043 13.1398 4.64386 14.5396 4.74385C16.2172 4.87716 17.4837 5.54374 18.3169 6.74359C14.8507 8.82111 15.6728 13.3872 18.8502 14.6648C18.2169 16.3313 17.3948 17.9866 16.0283 19.2087L16.0394 19.1976ZM10.4624 4.72163C10.2957 2.24416 12.3066 0.199975 14.6174 0C14.9396 2.8663 12.0177 4.99937 10.4624 4.72163Z"/></svg>