<svg xmlns="http://www.w3.org/2000/svg" width="41" height="40" fill="none" viewBox="0 0 41 40"><rect width="40" height="40" x=".313" y="-.005" fill="#212121" rx="20"/><g filter="url(#filter0_d_6151_1100)"><path fill="url(#paint0_linear_6151_1100)" d="M13.3569 17.2047L16.2468 13.0942C16.2923 13.0316 16.365 12.9946 16.4423 12.9946C16.5197 12.9946 16.5924 13.0316 16.6379 13.0942L19.5423 17.2047C19.5944 17.2775 19.6011 17.3734 19.5599 17.4528C19.5186 17.5323 19.4363 17.5819 19.3468 17.5812H17.8982V18.3053C17.8981 19.2679 18.3135 20.1837 19.0377 20.818L19.6316 21.3369C20.9812 22.5237 21.7566 24.2323 21.7611 26.0292V26.7533C21.7611 26.8866 21.653 26.9946 21.5196 26.9946H19.1053C18.972 26.9946 18.8639 26.8866 18.8639 26.7533V26.0292C18.8639 25.0666 18.4486 24.1508 17.7243 23.5165L17.1304 22.9976C15.7769 21.8138 15.0006 20.1033 15.001 18.3053V17.5812H13.5524C13.4629 17.5819 13.3806 17.5323 13.3393 17.4528C13.298 17.3734 13.3048 17.2775 13.3569 17.2047Z"/><path fill="url(#paint1_linear_6151_1100)" d="M21.108 17.5118C21.0627 17.467 21.0371 17.406 21.0368 17.3423C21.0372 17.2927 21.0533 17.2446 21.0827 17.2047L23.9726 13.0942C24.0181 13.0316 24.0908 12.9946 24.1682 12.9946C24.2455 12.9946 24.3182 13.0316 24.3637 13.0942L27.2681 17.2047C27.3202 17.2775 27.327 17.3734 27.2857 17.4528C27.2444 17.5323 27.1621 17.5819 27.0726 17.5812H25.624V18.3053C25.6244 20.1033 24.8481 21.8138 23.4946 22.9976L22.9007 23.5165C22.5582 23.8155 22.2812 24.182 22.087 24.593C21.8571 23.5397 21.3758 22.5576 20.6843 21.7304C20.6771 21.7207 20.6692 21.7117 20.6614 21.7026C20.6535 21.6936 20.6457 21.6845 20.6385 21.6749C20.7519 21.559 20.8702 21.4456 20.9934 21.3369L21.5873 20.818C22.3115 20.1837 22.7269 19.2679 22.7268 18.3053V17.5812H21.2782C21.2145 17.5816 21.1532 17.5566 21.108 17.5118Z"/></g><defs><filter id="filter0_d_6151_1100" width="32.996" height="32.996" x="3.815" y="5.08" color-interpolation-filters="sRGB" filterUnits="userSpaceOnUse"><feFlood flood-opacity="0" result="BackgroundImageFix"/><feColorMatrix in="SourceAlpha" result="hardAlpha" type="matrix" values="0 0 0 0 0 0 0 0 0 0 0 0 0 0 0 0 0 0 127 0"/><feOffset dy="1.583"/><feGaussianBlur stdDeviation="4.749"/><feComposite in2="hardAlpha" operator="out"/><feColorMatrix type="matrix" values="0 0 0 0 0.0242236 0 0 0 0 0.0749164 0 0 0 0 0.12171 0 0 0 0.69 0"/><feBlend in2="BackgroundImageFix" mode="normal" result="effect1_dropShadow_6151_1100"/><feBlend in="SourceGraphic" in2="effect1_dropShadow_6151_1100" mode="normal" result="shape"/></filter><linearGradient id="paint0_linear_6151_1100" x1="14.024" x2="32.803" y1="12.995" y2="23.046" gradientUnits="userSpaceOnUse"><stop stop-color="#D6FFE7"/><stop offset=".349" stop-color="#fff"/><stop offset="1" stop-color="#96D9FF"/></linearGradient><linearGradient id="paint1_linear_6151_1100" x1="14.024" x2="32.803" y1="12.995" y2="23.046" gradientUnits="userSpaceOnUse"><stop stop-color="#D6FFE7"/><stop offset=".349" stop-color="#fff"/><stop offset="1" stop-color="#96D9FF"/></linearGradient></defs></svg>