<svg width="19" height="20" viewBox="0 0 19 20" fill="none" xmlns="http://www.w3.org/2000/svg">
<g clip-path="url(#clip0_846_6988)">
<path fill-rule="evenodd" clip-rule="evenodd" d="M9.5 18.0509C14.0624 18.0509 17.7609 14.3524 17.7609 9.79004C17.7609 5.22769 14.0624 1.52917 9.5 1.52917C4.93765 1.52917 1.23913 5.22769 1.23913 9.79004C1.23913 14.3524 4.93765 18.0509 9.5 18.0509ZM9.5 19.29C14.7467 19.29 19 15.0367 19 9.79004C19 4.54333 14.7467 0.290039 9.5 0.290039C4.25329 0.290039 0 4.54333 0 9.79004C0 15.0367 4.25329 19.29 9.5 19.29Z" fill="white"/>
<path fill-rule="evenodd" clip-rule="evenodd" d="M9.49915 17.638C13.8334 17.638 17.347 14.1244 17.347 9.79017C17.347 5.45593 13.8334 1.94234 9.49915 1.94234C5.16492 1.94234 1.65132 5.45593 1.65132 9.79017C1.65132 14.1244 5.16492 17.638 9.49915 17.638ZM9.49915 18.051C14.0615 18.051 17.76 14.3525 17.76 9.79017C17.76 5.22781 14.0615 1.5293 9.49915 1.5293C4.9368 1.5293 1.23828 5.22781 1.23828 9.79017C1.23828 14.3525 4.9368 18.051 9.49915 18.051Z" fill="url(#paint0_linear_846_6988)"/>
<circle cx="9.50017" cy="9.78972" r="7.84783" fill="url(#paint1_linear_846_6988)"/>
<g filter="url(#filter0_d_846_6988)">
<path d="M6.55664 13.7005C6.45832 13.7005 6.37352 13.6649 6.30224 13.5936C6.23095 13.5224 6.19531 13.4401 6.19531 13.3467V6.97186C6.19531 6.64268 6.35263 6.40685 6.66725 6.26436C6.79999 6.20049 6.94255 6.15259 7.09494 6.12065C7.24735 6.08872 7.47103 6.07275 7.76599 6.07275C8.22318 6.07275 8.63613 6.12926 9.00483 6.24226C9.37353 6.35526 9.73854 6.46827 10.0999 6.58127C10.4612 6.69427 10.8582 6.75077 11.2908 6.75077C11.6005 6.75077 11.8463 6.72375 12.0282 6.6697C12.2101 6.61566 12.3576 6.58863 12.4706 6.58863C12.7557 6.58863 12.8983 6.71638 12.8983 6.97186V10.7157C12.8983 11.0449 12.741 11.2832 12.4264 11.4305C12.2887 11.4944 12.1437 11.5424 11.9914 11.5743C11.8389 11.6062 11.6177 11.6222 11.3277 11.6222C10.8852 11.6222 10.4834 11.5669 10.122 11.4563C9.76067 11.3458 9.39688 11.2353 9.03064 11.1247C8.6644 11.0142 8.25513 10.9589 7.80286 10.9589C7.5718 10.9589 7.38008 10.9761 7.22768 11.0105C7.07528 11.0449 6.96467 11.0769 6.89585 11.1063V13.3467C6.89585 13.445 6.86389 13.5285 6.79999 13.5973C6.73607 13.6661 6.65496 13.7005 6.55664 13.7005Z" fill="url(#paint2_linear_846_6988)"/>
<path d="M7.76562 6.03174C8.22604 6.03174 8.64342 6.0883 9.0166 6.20264L10.1123 6.5415L10.3867 6.61475C10.6678 6.67757 10.9693 6.70947 11.291 6.70947C11.5988 6.70946 11.8402 6.68278 12.0166 6.63037L12.2676 6.56787C12.3434 6.55398 12.4113 6.54736 12.4707 6.54736C12.6185 6.54738 12.7375 6.5805 12.8193 6.65381C12.9018 6.7279 12.9395 6.83697 12.9395 6.97217V10.7153C12.9395 10.8867 12.8982 11.0377 12.8145 11.1646C12.7308 11.291 12.6067 11.3922 12.4443 11.4683H12.4434C12.3733 11.5008 12.3013 11.5288 12.2275 11.5532L12 11.6147C11.8434 11.6476 11.6188 11.6636 11.3281 11.6636C10.9936 11.6636 10.6811 11.6318 10.3916 11.5688L10.1104 11.4956L9.01855 11.1646C8.65683 11.0553 8.25166 11.0005 7.80273 11.0005C7.63076 11.0005 7.48179 11.0099 7.35547 11.0288L7.23633 11.0513C7.10265 11.0815 7.00373 11.11 6.9375 11.1353V13.3472C6.93742 13.4282 6.91709 13.5012 6.87695 13.5649L6.83008 13.6255C6.75797 13.7031 6.66577 13.7417 6.55664 13.7417C6.47433 13.7417 6.4002 13.719 6.33496 13.6743L6.27344 13.6226C6.1952 13.5444 6.15442 13.4522 6.1543 13.3472V6.97217C6.1543 6.80077 6.19542 6.65065 6.2793 6.5249C6.36295 6.39966 6.48714 6.30067 6.64941 6.22705L6.86035 6.14111C6.93325 6.11661 7.00914 6.09687 7.08691 6.08057L7.2168 6.05908C7.3606 6.04073 7.54377 6.03175 7.76562 6.03174Z" stroke="white" stroke-width="0.0826087" stroke-linecap="round"/>
</g>
</g>
<defs>
<filter id="filter0_d_846_6988" x="4.71926" y="5.3111" width="9.65523" height="10.581" filterUnits="userSpaceOnUse" color-interpolation-filters="sRGB">
<feFlood flood-opacity="0" result="BackgroundImageFix"/>
<feColorMatrix in="SourceAlpha" type="matrix" values="0 0 0 0 0 0 0 0 0 0 0 0 0 0 0 0 0 0 127 0" result="hardAlpha"/>
<feOffset dy="0.714883"/>
<feGaussianBlur stdDeviation="0.697011"/>
<feComposite in2="hardAlpha" operator="out"/>
<feColorMatrix type="matrix" values="0 0 0 0 0.721569 0 0 0 0 0.292392 0 0 0 0 0.0509804 0 0 0 1 0"/>
<feBlend mode="normal" in2="BackgroundImageFix" result="effect1_dropShadow_846_6988"/>
<feBlend mode="normal" in="SourceGraphic" in2="effect1_dropShadow_846_6988" result="shape"/>
</filter>
<linearGradient id="paint0_linear_846_6988" x1="9.49915" y1="1.5293" x2="9.49915" y2="18.051" gradientUnits="userSpaceOnUse">
<stop stop-color="#F57E07"/>
<stop offset="1" stop-color="#F06600"/>
</linearGradient>
<linearGradient id="paint1_linear_846_6988" x1="9.50017" y1="1.94189" x2="9.50017" y2="17.6375" gradientUnits="userSpaceOnUse">
<stop stop-color="#FEA701"/>
<stop offset="1" stop-color="#F86B01"/>
</linearGradient>
<linearGradient id="paint2_linear_846_6988" x1="9.54681" y1="6.07275" x2="9.54681" y2="13.7005" gradientUnits="userSpaceOnUse">
<stop stop-color="#FFF7AD"/>
<stop offset="1" stop-color="#FFFDEC"/>
</linearGradient>
<clipPath id="clip0_846_6988">
<rect width="19" height="19" fill="white" transform="translate(0 0.290039)"/>
</clipPath>
</defs>
</svg>
