<svg width="20" height="20" viewBox="0 0 20 20" fill="none" xmlns="http://www.w3.org/2000/svg">
<g clip-path="url(#clip0_1169_3480)">
<path d="M19.7623 10.1878C19.7623 9.36841 19.6958 8.77047 19.552 8.15039H10.1953V11.8487H15.6874C15.5768 12.7678 14.9788 14.1519 13.65 15.082L13.6314 15.2058L16.5898 17.4976L16.7948 17.5181C18.6771 15.7796 19.7623 13.2218 19.7623 10.1878Z" fill="#4285F4"/>
<path d="M10.1956 19.9312C12.8863 19.9312 15.1452 19.0453 16.7951 17.5173L13.6504 15.0812C12.8088 15.6681 11.6794 16.0777 10.1956 16.0777C7.5603 16.0777 5.32358 14.3393 4.52625 11.9365L4.40938 11.9464L1.3332 14.3271L1.29297 14.439C2.93175 17.6944 6.29793 19.9312 10.1956 19.9312Z" fill="#34A853"/>
<path d="M4.52673 11.9363C4.31635 11.3163 4.19459 10.6518 4.19459 9.96534C4.19459 9.27878 4.31635 8.61443 4.51566 7.99435L4.51009 7.86229L1.39535 5.44336L1.29345 5.49183C0.618026 6.84275 0.230469 8.35977 0.230469 9.96534C0.230469 11.5709 0.618026 13.0879 1.29345 14.4388L4.52673 11.9363Z" fill="#FBBC05"/>
<path d="M10.1956 3.85336C12.0669 3.85336 13.3292 4.66168 14.049 5.33718L16.8615 2.59107C15.1342 0.985496 12.8863 0 10.1956 0C6.29793 0 2.93175 2.23672 1.29297 5.49214L4.51518 7.99466C5.32358 5.59183 7.5603 3.85336 10.1956 3.85336Z" fill="#EB4335"/>
</g>
<defs>
<clipPath id="clip0_1169_3480">
<rect width="19.542" height="20" fill="white" transform="translate(0.230469)"/>
</clipPath>
</defs>
</svg>
