<svg xmlns="http://www.w3.org/2000/svg" width="44" height="44" fill="none" viewBox="0 0 44 44"><mask id="mask0_6151_1064" style="mask-type:luminance" width="40" height="40" x="2" y="2" maskUnits="userSpaceOnUse"><path fill="#fff" d="M41.669 22.3286C41.669 11.6462 33.0092 2.98633 22.3267 2.98633C11.6442 2.98633 2.98438 11.6462 2.98438 22.3286C2.98438 33.0111 11.6442 41.671 22.3267 41.671C33.0092 41.671 41.669 33.0111 41.669 22.3286Z"/></mask><g mask="url(#mask0_6151_1064)"><path fill="#fff" d="M41.669 22.3286C41.669 11.6462 33.0092 2.98633 22.3267 2.98633C11.6442 2.98633 2.98438 11.6462 2.98438 22.3286C2.98438 33.0111 11.6442 41.671 22.3267 41.671C33.0092 41.671 41.669 33.0111 41.669 22.3286Z"/><path fill="url(#paint0_linear_6151_1064)" d="M22.3267 41.6709C33.0091 41.6709 41.669 33.0111 41.669 22.3287C41.669 11.6462 33.0091 2.98633 22.3267 2.98633C11.6442 2.98633 2.98438 11.6462 2.98438 22.3287C2.98438 26.4719 4.28708 30.3109 6.50525 33.4583C8.3852 30.4008 10.668 27.6006 13.2978 25.1356C13.8078 24.657 14.3273 24.1933 14.8562 23.7443C15.6963 23.0341 16.5646 22.3584 17.4609 21.7172C18.1917 21.1958 18.9395 20.6981 19.7045 20.2241C18.5819 19.2051 17.4139 18.2058 16.2098 17.2341L13.7304 15.3345L13.3691 15.0527C13.3289 15.0222 13.287 14.9936 13.2441 14.9644C13.2334 14.957 13.2225 14.9496 13.2117 14.9422C13.1766 14.9181 13.1557 14.9023 13.1353 14.8868C13.1242 14.8784 13.1131 14.87 13.1001 14.8605C13.0629 14.8333 13.0259 14.8059 12.9888 14.7785C12.88 14.6981 12.7706 14.6173 12.6571 14.5392C12.6109 14.4889 12.5692 14.4347 12.5325 14.3772C12.3932 14.1582 12.3242 13.9018 12.3347 13.6425C12.3452 13.3832 12.4347 13.1333 12.5912 12.9262C12.7476 12.7192 12.9637 12.5649 13.2103 12.4841C13.4569 12.4033 13.7224 12.3998 13.9711 12.474L14.1746 12.5537L14.8879 12.8342L16.9353 13.6309L20.2954 14.9605L25.5807 17.0439C26.227 16.6842 26.851 16.3494 27.4469 16.0448C28.2129 15.6547 28.9316 15.3176 29.584 15.0442L29.7031 14.9913C30.8195 14.5277 31.7226 14.2642 32.3012 14.2731C32.4935 14.2617 32.6842 14.3136 32.8443 14.4206C32.8751 14.6144 32.8403 14.813 32.7453 14.9848C32.5055 15.5149 31.8841 16.2208 30.9959 17.0355L30.8976 17.121C30.3739 17.5966 29.7645 18.1054 29.0871 18.6346C28.5585 19.0447 27.9919 19.4697 27.3926 19.9033L27.3164 21.2229L27.1632 23.7649L26.7337 30.6995L26.6898 31.3692L26.6423 32.1343L26.6284 32.3524C26.5906 32.6092 26.4752 32.8482 26.2976 33.0376C26.1201 33.2269 25.889 33.3574 25.6351 33.4117C25.3813 33.466 25.117 33.4414 24.8776 33.3412C24.6381 33.2411 24.435 33.0701 24.2955 32.8513C24.2587 32.7933 24.227 32.7323 24.2006 32.6688C24.1956 32.6425 24.1906 32.6161 24.1856 32.5898C24.1813 32.5673 24.177 32.5449 24.1728 32.5225L24.1726 32.5219C24.1479 32.3919 24.123 32.2616 24.0975 32.1326C24.0932 32.1118 24.0892 32.0908 24.0852 32.0701C24.0829 32.0581 24.0805 32.0461 24.0782 32.0343C24.0757 32.0216 24.0732 32.0091 24.0706 31.9969C24.0666 31.9778 24.0623 31.9507 24.0576 31.9211C24.0517 31.884 24.0452 31.8429 24.0378 31.8085L23.2666 28.3045C22.9044 26.8363 22.5032 25.3884 22.0653 23.9715L22.0637 23.9664L21.6593 24.224C20.704 24.8324 19.7833 25.4747 18.8978 26.1482C12.3164 31.1544 14.0577 41.6709 22.3267 41.6709Z"/><mask id="mask1_6151_1064" style="mask-type:alpha" width="40" height="40" x="2" y="2" maskUnits="userSpaceOnUse"><path fill="url(#paint1_linear_6151_1064)" d="M22.3267 41.6709C33.0091 41.6709 41.669 33.0111 41.669 22.3287C41.669 11.6462 33.0091 2.98633 22.3267 2.98633C11.6442 2.98633 2.98438 11.6462 2.98438 22.3287C2.98438 26.4719 4.28708 30.3109 6.50525 33.4583C8.3852 30.4008 10.668 27.6006 13.2978 25.1356C13.8078 24.657 14.3273 24.1933 14.8562 23.7443C15.6963 23.0341 16.5646 22.3584 17.4609 21.7172C18.1917 21.1958 18.9395 20.6981 19.7045 20.2241C18.5819 19.2051 17.4139 18.2058 16.2098 17.2341L13.7304 15.3345L13.3691 15.0527C13.3289 15.0222 13.287 14.9936 13.2441 14.9644C13.2334 14.957 13.2225 14.9496 13.2117 14.9422C13.1766 14.9181 13.1557 14.9023 13.1353 14.8868C13.1242 14.8784 13.1131 14.87 13.1001 14.8605C13.0629 14.8333 13.0259 14.8059 12.9888 14.7785C12.88 14.6981 12.7706 14.6173 12.6571 14.5392C12.6109 14.4889 12.5692 14.4347 12.5325 14.3772C12.3932 14.1582 12.3242 13.9018 12.3347 13.6425C12.3452 13.3832 12.4347 13.1333 12.5912 12.9262C12.7476 12.7192 12.9637 12.5649 13.2103 12.4841C13.4569 12.4033 13.7224 12.3998 13.9711 12.474L14.1746 12.5537L14.8879 12.8342L16.9353 13.6309L20.2954 14.9605L25.5807 17.0439C26.227 16.6842 26.851 16.3494 27.4469 16.0448C28.2129 15.6547 28.9316 15.3176 29.584 15.0442L29.7031 14.9913C30.8195 14.5277 31.7226 14.2642 32.3012 14.2731C32.4935 14.2617 32.6842 14.3136 32.8443 14.4206C32.8751 14.6144 32.8403 14.813 32.7453 14.9848C32.5055 15.5149 31.8841 16.2208 30.9959 17.0355L30.8976 17.121C30.3739 17.5966 29.7645 18.1054 29.0871 18.6346C28.5585 19.0447 27.9919 19.4697 27.3926 19.9033L27.3164 21.2229L27.1632 23.7649L26.7337 30.6995L26.6898 31.3692L26.6423 32.1343L26.6284 32.3524C26.5906 32.6092 26.4752 32.8482 26.2976 33.0376C26.1201 33.2269 25.889 33.3574 25.6351 33.4117C25.3813 33.466 25.117 33.4414 24.8776 33.3412C24.6381 33.2411 24.435 33.0701 24.2955 32.8513C24.2587 32.7933 24.227 32.7323 24.2006 32.6688C24.1956 32.6425 24.1906 32.6161 24.1856 32.5898C24.1813 32.5673 24.177 32.5449 24.1728 32.5225L24.1726 32.5219C24.1479 32.3919 24.123 32.2616 24.0975 32.1326C24.0932 32.1118 24.0892 32.0908 24.0852 32.0701C24.0829 32.0581 24.0805 32.0461 24.0782 32.0343C24.0757 32.0216 24.0732 32.0091 24.0706 31.9969C24.0666 31.9778 24.0623 31.9507 24.0576 31.9211C24.0517 31.884 24.0452 31.8429 24.0378 31.8085L23.2666 28.3045C22.9044 26.8363 22.5032 25.3884 22.0653 23.9715L22.0637 23.9664L21.6593 24.224C20.704 24.8324 19.7833 25.4747 18.8978 26.1482C12.3164 31.1544 14.0577 41.6709 22.3267 41.6709Z"/></mask><g mask="url(#mask1_6151_1064)"><mask id="mask2_6151_1064" style="mask-type:alpha" width="40" height="40" x="2" y="2" maskUnits="userSpaceOnUse"><path fill="url(#paint2_radial_6151_1064)" d="M41.6768 2.99023H2.99219V41.6749H41.6768V2.99023Z"/></mask><g mask="url(#mask2_6151_1064)"><path fill="url(#paint3_radial_6151_1064)" fill-rule="evenodd" d="M31.769 8.74027L25.8533 5.84901L27.2506 2.99023H25.9314L24.7885 5.32859L20.0041 2.99023H17.305L24.2681 6.3934L21.9262 11.1851L13.8809 7.25299L15.9643 2.99023H14.352L12.5794 6.61691L4.78911 2.99023H2.99219V3.4608L12.059 7.68174L7.77995 16.4369L2.99219 14.0836V15.8444L7.08605 17.8566L3.12499 25.9611L2.99219 25.8962V29.5317L3.90601 27.662L11.9513 31.5941L7.02433 41.6748H8.34351L10.8766 36.4922L16.7922 39.3834L15.6723 41.6748H18.897L25.2507 28.6749C25.6734 27.8099 26.7174 27.4514 27.5824 27.8742L31.9318 29.9999L26.2257 41.6748H27.5449L31.4064 33.774L35.7456 35.8948L32.9206 41.6748H33.5069L36.2188 36.1261L41.6768 38.7937V37.7677L31.8112 32.9458L32.9966 30.5204L41.6768 34.7628V33.0039L39.0765 31.733L40.3913 28.9443C41.0502 27.5466 40.4628 25.8789 39.0733 25.2027L36.2638 23.8356L37.9696 20.3454L41.6768 22.1574V20.8382L38.49 19.2807L41.6768 12.7603V10.0612L37.4251 18.7602L31.5095 15.869L37.7525 2.99023H34.5385L31.769 8.74027ZM31.2486 9.80511L28.9067 14.5968L22.991 11.7055L25.3329 6.91383L31.2486 9.80511ZM39.4036 28.2306L38.0089 31.2112L33.6905 29.1006L35.7432 24.9008L38.7439 26.364C39.4365 26.7018 39.7301 27.5326 39.4036 28.2306ZM28.3862 15.6616L22.6547 12.8604L25.585 21.3932L28.3862 15.6616ZM18.9737 11.0613L20.2171 14.682L17.1267 21.0051L9.0814 17.0729L13.3604 8.31781L18.9737 11.0613ZM8.38749 18.4927L4.42644 26.5972L12.4717 30.5293L16.4328 22.4249L8.38749 18.4927ZM17.4976 22.9453L13.5365 31.0497L19.4522 33.941L22.6478 27.4028C23.0705 26.5378 22.712 25.4938 21.847 25.0711L17.4976 22.9453ZM18.9318 35.0058L13.0161 32.1146L11.1657 35.9006L17.0814 38.7918L18.9318 35.0058ZM18.1915 21.5255L20.7615 16.2673L23.1243 23.1477C23.2444 23.4975 22.8817 23.8178 22.5494 23.6554L18.1915 21.5255ZM30.9891 16.9338L36.9047 19.825L32.6257 28.5802L28.2763 26.4544C27.4113 26.0316 27.0528 24.9877 27.4756 24.1227L30.9891 16.9338Z" clip-rule="evenodd"/></g><path style="mix-blend-mode:multiply" fill="url(#paint4_linear_6151_1064)" d="M38.7212 -6.42773C41.404 -0.484553 41.9834 6.19478 40.3642 12.5113C38.745 18.8278 35.0236 24.4053 29.8122 28.3259C24.6008 32.2466 18.2099 34.277 11.6911 34.083C5.1722 33.889 -1.08629 31.4821 -6.05469 27.2585C-4.28592 31.1875 -1.65556 34.668 1.6415 37.4424C4.93856 40.2167 8.8178 42.2137 12.9918 43.2853C17.1657 44.3569 21.5275 44.4757 25.7537 43.6329C29.98 42.7901 33.9624 41.0073 37.406 38.4166C40.8496 35.8259 43.6661 32.4936 45.6467 28.6669C47.6273 24.84 48.7213 20.6168 48.8476 16.3099C48.9739 12.0031 48.1292 7.72305 46.3763 3.78703C44.6234 -0.148999 42.0071 -3.64013 38.7212 -6.42773Z" opacity=".3"/><path fill="url(#paint5_linear_6151_1064)" d="M50.9066 29.1158C51.9588 26.5942 52.6474 23.9436 52.9577 21.2434C53.1871 19.2474 51.7888 18.8509 50.1208 19.9709C48.3403 21.1643 45.9512 20.166 44.1451 18.9924C42.339 17.8189 40.3358 16.4378 38.2588 16.9369C35.7311 17.5534 34.6752 20.6384 34.787 23.2364C34.8989 25.8345 35.7315 28.457 35.168 30.9967C34.4563 34.2303 31.2825 36.7382 27.9806 36.687C25.745 36.6505 23.654 35.589 21.4454 35.2461C15.783 34.3697 14.1879 39.8384 18.6291 42.8833C20.2027 43.9555 21.8313 44.9435 23.5082 45.8432C24.9737 46.6294 26.6534 46.8853 28.2922 47.1679C33.512 48.0682 40.0646 51.691 43.863 48.9903C48.3058 45.8312 48.8025 34.1464 50.9066 29.1158Z"/><path stroke="url(#paint6_linear_6151_1064)" stroke-dasharray=".68 .68" stroke-width=".17" d="M49.9792 22.0122C50.0482 21.9658 50.1166 21.9225 50.1843 21.8821L50.1524 21.8286C50.3013 21.7398 50.4471 21.6649 50.5886 21.604L50.6132 21.6612C50.7715 21.593 50.9236 21.543 51.0678 21.511L51.0543 21.4502C51.228 21.4117 51.3915 21.3982 51.5418 21.4101L51.5368 21.4721C51.7026 21.4852 51.8493 21.5304 51.9739 21.6066L52.0064 21.5535C52.1417 21.6363 52.2542 21.754 52.3391 21.9069L52.2846 21.9372C52.3524 22.0594 52.4025 22.2071 52.4308 22.3814L52.4923 22.3714C52.5161 22.5175 52.525 22.6803 52.5174 22.86L52.4551 22.8573C52.4519 22.9345 52.4455 23.0149 52.4359 23.0987C52.4259 23.1853 52.4155 23.272 52.4047 23.3585L52.4665 23.3663C52.4448 23.5398 52.4213 23.7131 52.3962 23.8862L52.3345 23.8772C52.3094 24.0499 52.2826 24.2223 52.2539 24.3944L52.3154 24.4046C52.2867 24.5771 52.2563 24.7494 52.2242 24.9213L52.163 24.9099C52.131 25.0814 52.0972 25.2526 52.0617 25.4235L52.1227 25.4361C52.0872 25.6074 52.0499 25.7782 52.0109 25.9487L51.9502 25.9348C51.9113 26.105 51.8707 26.2746 51.8284 26.4439L51.8888 26.459C51.8464 26.6287 51.8023 26.7979 51.7566 26.9667L51.6964 26.9504C51.6508 27.1188 51.6034 27.2867 51.5543 27.4542L51.6141 27.4717C51.5649 27.6396 51.5141 27.8069 51.4616 27.9738L51.4022 27.9551C51.3498 28.1215 51.2957 28.2874 51.2399 28.4527L51.2989 28.4726C51.2431 28.6383 51.1855 28.8034 51.1264 28.9681L51.0678 28.947C51.0088 29.1112 50.9481 29.2747 50.8857 29.4378L50.9439 29.4601C50.8815 29.6233 50.8174 29.7861 50.7516 29.9482L50.6939 29.9248C50.6611 30.0056 50.6279 30.0863 50.5943 30.1669C50.5625 30.2429 50.5311 30.3205 50.5002 30.3998L50.5581 30.4224C50.4984 30.5752 50.4402 30.7339 50.3831 30.8982L50.3243 30.8778C50.27 31.034 50.217 31.1952 50.1649 31.361L50.2243 31.3796C50.1748 31.5373 50.1261 31.6992 50.0782 31.865L50.0184 31.8478C49.9723 32.0075 49.9268 32.1708 49.882 32.3374L49.9421 32.3536C49.8989 32.5143 49.8562 32.678 49.814 32.8445L49.7536 32.8292C49.7125 32.9913 49.6718 33.1559 49.6315 33.3229L49.6921 33.3375C49.6529 33.4998 49.6141 33.6643 49.5755 33.8308L49.5149 33.8168C49.4771 33.9795 49.4396 34.144 49.4023 34.3103L49.4631 34.324C49.4264 34.4873 49.3899 34.6522 49.3535 34.8186L49.2927 34.8053C49.2567 34.9692 49.2209 35.1347 49.185 35.3012L49.2459 35.3143C49.2106 35.4787 49.1752 35.6442 49.1397 35.8107L49.0788 35.7977C49.0438 35.962 49.0088 36.1272 48.9737 36.2931L49.0345 36.306C49.0255 36.3487 49.0164 36.3914 49.0074 36.4343C48.9815 36.5563 48.9556 36.6788 48.9295 36.8016L48.8686 36.7886C48.8336 36.9534 48.7985 37.1188 48.7631 37.2845L48.824 37.2975C48.7887 37.4624 48.7532 37.6277 48.7173 37.7933L48.6565 37.7801C48.6209 37.9449 48.5849 38.1099 48.5485 38.2749L48.6093 38.2883C48.573 38.4532 48.5363 38.6182 48.4992 38.7831L48.4384 38.7694C48.4013 38.9342 48.3638 39.0989 48.3257 39.2633L48.3864 39.2773C48.3482 39.442 48.3096 39.6064 48.2704 39.7704L48.2099 39.7559C48.1705 39.9205 48.1306 40.0847 48.0901 40.2482L48.1505 40.2632C48.1097 40.4277 48.0683 40.5916 48.0262 40.7548L47.9659 40.7392C47.9235 40.9032 47.8805 41.0663 47.8367 41.2285L47.8968 41.2447C47.8525 41.4083 47.8075 41.5709 47.7617 41.7323L47.7018 41.7153C47.6553 41.8787 47.608 42.041 47.5598 42.2017L47.6195 42.2196C47.5705 42.3827 47.5206 42.5443 47.4696 42.7043L47.4103 42.6854C47.3588 42.8473 47.3062 43.0075 47.2524 43.1657L47.3114 43.1857C47.2566 43.3469 47.2007 43.5062 47.1436 43.6632L47.0851 43.6419C47.0269 43.8016 46.9675 43.959 46.9067 44.1139L46.9647 44.1367C46.9021 44.2961 46.8381 44.4528 46.7725 44.6067L46.7152 44.5823C46.6483 44.7393 46.5798 44.8932 46.5096 45.0439L46.5661 45.0702C46.4936 45.2256 46.4195 45.3775 46.3433 45.5257L46.288 45.4973C46.21 45.6491 46.13 45.7969 46.0479 45.9404L46.102 45.9713C46.0168 46.1204 45.9292 46.2649 45.8393 46.4045L45.787 46.3708C45.6946 46.5142 45.5997 46.6525 45.5022 46.785L45.5523 46.8219C45.4504 46.9604 45.3455 47.0929 45.2377 47.2189L45.1904 47.1785C45.0797 47.3077 44.9659 47.4301 44.8487 47.5451L44.8923 47.5895C44.7699 47.7096 44.6438 47.8219 44.5137 47.9258L44.4749 47.8771C44.4098 47.9293 44.3436 47.9792 44.2765 48.0269C44.2116 48.0731 44.1453 48.1174 44.0778 48.1602L44.1111 48.2128C43.975 48.2988 43.8338 48.378 43.6879 48.4506L43.6601 48.3949C43.5184 48.4654 43.3719 48.5298 43.2211 48.5882L43.2436 48.6463C43.0947 48.7041 42.9416 48.7562 42.7847 48.8028L42.7669 48.7431C42.6153 48.7883 42.4601 48.8283 42.3014 48.8636L42.3149 48.9244C42.1591 48.9591 42 48.9892 41.8379 49.0151L41.8281 48.9536C41.6715 48.9786 41.512 48.9996 41.3499 49.0169L41.3565 49.0788C41.1975 49.0957 41.0361 49.109 40.8724 49.119L40.8686 49.0568C40.7098 49.0665 40.5488 49.0731 40.3857 49.0766L40.3871 49.1389C40.227 49.1424 40.0651 49.1431 39.9014 49.1412L39.9021 49.0789C39.7426 49.0771 39.5813 49.0727 39.4185 49.0661L39.4159 49.1283C39.2557 49.1217 39.094 49.113 38.9311 49.1022L38.9352 49.0401C38.7755 49.0295 38.6145 49.017 38.4525 49.0026L38.447 49.0647C38.287 49.0505 38.1258 49.0346 37.9638 49.0172L37.9705 48.9553C37.8108 48.9382 37.6504 48.9194 37.4891 48.8994L37.4814 48.9612C37.3216 48.9414 37.1611 48.9202 37 48.8978L37.0085 48.8361C36.8491 48.814 36.6891 48.7908 36.5286 48.7666L36.5193 48.8281C36.3598 48.804 36.1998 48.7789 36.0395 48.753L36.0494 48.6916C35.8901 48.6658 35.7306 48.6393 35.5707 48.612L35.5603 48.6734C35.4009 48.6463 35.2414 48.6185 35.0818 48.5902L35.0927 48.5289C34.9335 48.5006 34.7743 48.4719 34.615 48.4427L34.6038 48.504C34.4446 48.4749 34.2853 48.4454 34.1263 48.4157L34.1378 48.3545C33.9785 48.3247 33.8195 48.2948 33.6607 48.2647L33.6491 48.326C33.4897 48.2958 33.3306 48.2656 33.1719 48.2354L33.1836 48.1743L33.1707 48.1718C33.0155 48.1423 32.8606 48.1129 32.7063 48.0837L32.6947 48.1449C32.535 48.1146 32.3758 48.0847 32.2173 48.055L32.2288 47.9939C32.0688 47.9639 31.9094 47.9345 31.7508 47.9055L31.7397 47.9667C31.5795 47.9375 31.42 47.9088 31.2616 47.8808L31.2724 47.8194C31.1117 47.791 30.952 47.7634 30.7933 47.7366L30.783 47.798C30.622 47.7709 30.4622 47.7447 30.3037 47.7196L30.3133 47.6581C30.1516 47.6325 29.9913 47.6081 29.8324 47.585L29.8234 47.6466C29.6614 47.6231 29.501 47.601 29.3423 47.5805L29.3503 47.5187C29.2698 47.5083 29.1898 47.4983 29.1102 47.4887C29.0279 47.4788 28.9456 47.4688 28.8632 47.4585L28.8555 47.5202C28.6908 47.4996 28.526 47.478 28.3614 47.455L28.37 47.3933C28.2059 47.3704 28.0419 47.346 27.8783 47.3198L27.8685 47.3813C27.7044 47.355 27.5406 47.3269 27.3774 47.2965L27.3888 47.2352C27.2259 47.2049 27.0636 47.1722 26.9023 47.1369L26.8889 47.1977C26.7264 47.1621 26.5648 47.1238 26.4041 47.0822L26.4197 47.022C26.2595 46.9806 26.1004 46.9359 25.9426 46.8877L25.9245 46.9472C25.7654 46.8986 25.6077 46.8464 25.4516 46.79L25.4728 46.7314C25.3176 46.6753 25.164 46.6152 25.0122 46.5506L24.9878 46.6078C24.8352 46.5428 24.6844 46.4732 24.5356 46.3986L24.5635 46.343C24.4899 46.3061 24.4169 46.268 24.3444 46.2286C24.2729 46.1898 24.2015 46.1508 24.1303 46.1116L24.1003 46.1662C23.9576 46.0877 23.8154 46.0085 23.6735 45.9287L23.704 45.8744C23.5623 45.7947 23.421 45.7142 23.2801 45.633L23.249 45.6869C23.1079 45.6056 22.9672 45.5236 22.827 45.4409L22.8586 45.3873C22.7185 45.3047 22.5789 45.2214 22.4397 45.1373L22.4075 45.1907C22.2681 45.1066 22.1291 45.0218 21.9905 44.9362L22.0232 44.8833C21.8848 44.7979 21.7468 44.7118 21.6093 44.625L21.5761 44.6777C21.4384 44.5907 21.3011 44.5032 21.1643 44.4149L21.1981 44.3625C21.0614 44.2744 20.9252 44.1855 20.7895 44.096L20.7552 44.148C20.6193 44.0583 20.4838 43.968 20.3488 43.877L20.3836 43.8254C20.3162 43.7799 20.2488 43.7343 20.1817 43.6885C20.1109 43.64 20.0418 43.5908 19.9746 43.5409L19.9375 43.591C19.798 43.4877 19.6658 43.3817 19.5407 43.2734L19.5815 43.2263C19.4518 43.1139 19.33 42.999 19.2159 42.882L19.1713 42.9255C19.0496 42.8007 18.9366 42.6736 18.8321 42.5446L18.8805 42.5054C18.7723 42.372 18.6734 42.2365 18.5838 42.0997L18.5317 42.1338C18.4366 41.9889 18.3517 41.8424 18.2767 41.695L18.3322 41.6668C18.2544 41.5139 18.1875 41.3602 18.1314 41.2065L18.0729 41.2279C18.0135 41.0653 17.9658 40.9026 17.9296 40.7406L17.9904 40.727C17.9533 40.561 17.9286 40.3958 17.916 40.2325L17.8539 40.2374C17.8406 40.0655 17.8404 39.8957 17.8532 39.7289L17.9152 39.7336C17.928 39.566 17.954 39.4016 17.993 39.2417L17.9325 39.227C17.9729 39.0613 18.0269 38.9002 18.0943 38.745L18.1514 38.7698C18.2175 38.6179 18.2965 38.4717 18.3884 38.3325L18.3364 38.2982C18.4289 38.158 18.5342 38.0248 18.6519 37.8998L18.6972 37.9424C18.8093 37.8233 18.933 37.7117 19.068 37.6087L19.0303 37.5592C19.1618 37.4589 19.3038 37.3667 19.4562 37.2835L19.486 37.3382C19.6285 37.2604 19.7803 37.1906 19.9412 37.1297L19.9192 37.0715C20.0728 37.0133 20.2344 36.9632 20.404 36.9217L20.4188 36.9822C20.5766 36.9436 20.7416 36.9126 20.9135 36.8899L20.9053 36.8282C21.0682 36.8067 21.237 36.7924 21.4119 36.786L21.4142 36.8482C21.5764 36.8423 21.7439 36.843 21.9166 36.8511L21.9195 36.7889C22.0838 36.7965 22.2527 36.8105 22.4261 36.8314L22.4187 36.8932C22.502 36.9033 22.5864 36.9149 22.6718 36.9281C22.7541 36.9408 22.8362 36.9548 22.9183 36.9697L22.9294 36.9084C23.0943 36.9384 23.2586 36.9724 23.4223 37.0095L23.4085 37.0703C23.5711 37.1071 23.7333 37.1472 23.8952 37.1894L23.911 37.1292C24.0731 37.1715 24.2348 37.216 24.3963 37.2618L24.3793 37.3217C24.5403 37.3674 24.7011 37.4144 24.8619 37.4618L24.8795 37.4021C24.9566 37.4249 25.0336 37.4477 25.1105 37.4705C25.1944 37.4953 25.2782 37.5202 25.362 37.5449L25.3444 37.6046C25.5055 37.6521 25.6668 37.6992 25.8283 37.7449L25.8453 37.685C26.0069 37.7307 26.1687 37.7751 26.3308 37.8171L26.3151 37.8773C26.4783 37.9197 26.6419 37.9598 26.8061 37.9966L26.8197 37.9359C26.9836 37.9726 27.1479 38.0062 27.3128 38.0356L27.3019 38.0969C27.4681 38.1265 27.6351 38.1519 27.8028 38.1722L27.8103 38.1104C27.9766 38.1305 28.1436 38.1455 28.3114 38.1545L28.3081 38.2166C28.3924 38.2212 28.477 38.2242 28.5619 38.2256C28.643 38.2268 28.7251 38.2256 28.808 38.2218L28.8052 38.1596C28.963 38.1525 29.1241 38.1363 29.2877 38.1117L29.297 38.1733C29.4558 38.1494 29.6167 38.1176 29.7793 38.0784L29.7647 38.0179C29.919 37.9808 30.0748 37.9369 30.2317 37.8868L30.2507 37.9461C30.4039 37.8971 30.5579 37.8423 30.7124 37.7819L30.6897 37.7239C30.8383 37.6658 30.9874 37.6026 31.1364 37.5345L31.1623 37.5912C31.3091 37.5241 31.4558 37.4525 31.6021 37.3766L31.5734 37.3213C31.7157 37.2475 31.8577 37.1695 31.9988 37.0878L32.03 37.1416C32.1699 37.0606 32.3092 36.9758 32.4472 36.8877L32.4136 36.8352C32.5496 36.7485 32.6843 36.6583 32.8176 36.5652L32.8533 36.6162C32.9863 36.5233 33.1179 36.4273 33.2476 36.3286L33.2099 36.2791C33.3387 36.1811 33.4657 36.0804 33.5905 35.9774L33.6302 36.0254C33.7558 35.9216 33.8793 35.8154 34.0001 35.7071L33.9586 35.6607C34.0796 35.5522 34.1981 35.4415 34.3136 35.329L34.3571 35.3736C34.4744 35.2594 34.5887 35.1432 34.6995 35.0254L34.6542 34.9828C34.766 34.864 34.8743 34.7436 34.9787 34.6218L35.026 34.6624C35.1332 34.5373 35.2365 34.4108 35.3352 34.2832L35.286 34.2451C35.3863 34.1155 35.4818 33.9849 35.5724 33.8535L35.6236 33.8888C35.7177 33.7522 35.8063 33.6148 35.889 33.4768L35.8356 33.4448C35.9203 33.3035 35.9986 33.1619 36.07 33.0202L36.1256 33.0482C36.2009 32.8989 36.2687 32.7495 36.3284 32.6004L36.2706 32.5773C36.332 32.4237 36.3847 32.2706 36.4279 32.1186L36.4878 32.1356C36.5104 32.0558 36.5305 31.9764 36.548 31.8971C36.5663 31.8144 36.583 31.7317 36.5982 31.6489L36.5369 31.6377C36.5672 31.4726 36.5913 31.3071 36.6099 31.1413L36.6717 31.1482C36.6905 30.9805 36.7038 30.8125 36.7123 30.6443L36.6501 30.6412C36.6585 30.4743 36.6622 30.3071 36.6617 30.1396L36.724 30.1394C36.7235 29.9715 36.719 29.8034 36.7113 29.6352L36.6491 29.6381C36.6414 29.4713 36.6303 29.3044 36.6168 29.1373L36.6788 29.1322C36.6652 28.9653 36.6491 28.7982 36.6311 28.631L36.5692 28.6377C36.5513 28.4718 36.5316 28.3056 36.5107 28.1394L36.5724 28.1316C36.5516 27.9656 36.5296 27.7995 36.5071 27.6335L36.4454 27.6418C36.4298 27.527 36.4141 27.4122 36.3983 27.2973C36.3913 27.2464 36.3843 27.1955 36.3774 27.1446L36.4391 27.1362C36.4164 26.9705 36.3939 26.8048 36.3723 26.6393L36.3106 26.6473C36.2889 26.4813 36.2682 26.3153 36.249 26.1493L36.3108 26.1421C36.2916 25.9761 36.274 25.8102 36.2585 25.6445L36.1966 25.6502C36.1811 25.4834 36.1678 25.3166 36.1575 25.15L36.2196 25.1461C36.2145 25.063 36.2101 24.9798 36.2066 24.8968C36.203 24.8149 36.2008 24.7324 36.1999 24.6495L36.1376 24.6501C36.1358 24.4852 36.1391 24.3186 36.1477 24.1513L36.2099 24.1545C36.2183 23.9904 36.2318 23.8256 36.2505 23.6609L36.1886 23.6539C36.2073 23.4888 36.2312 23.3239 36.2603 23.16L36.3215 23.1709C36.3504 23.0082 36.3845 22.8465 36.4238 22.6867L36.3633 22.6718C36.4033 22.5096 36.4486 22.3492 36.4994 22.1916L36.5586 22.2107C36.6095 22.0528 36.6659 21.8977 36.7279 21.7464L36.6703 21.7228C36.7339 21.5676 36.8034 21.4162 36.8788 21.2695L36.9342 21.2979C37.01 21.1503 37.092 21.0077 37.18 20.871L37.1277 20.8373C37.2187 20.6961 37.3161 20.561 37.4203 20.4331L37.4685 20.4724C37.5728 20.3443 37.6837 20.2237 37.8013 20.1115L37.7584 20.0664C37.8792 19.9513 38.007 19.8448 38.1421 19.7481L38.1783 19.7987C38.3106 19.7041 38.4498 19.619 38.5962 19.5446L38.568 19.4891C38.7145 19.4146 38.868 19.3507 39.0287 19.2983L39.048 19.3575C39.1248 19.3324 39.2034 19.3101 39.2836 19.2905C39.361 19.2719 39.4382 19.2563 39.5152 19.2434L39.505 19.1821C39.6651 19.1554 39.8248 19.1407 39.9838 19.1367L39.9853 19.1989C40.1434 19.195 40.301 19.2018 40.458 19.2182L40.4645 19.1562C40.6235 19.1728 40.7818 19.1991 40.9393 19.2338L40.9259 19.2946C41.0794 19.3284 41.2324 19.3704 41.3847 19.4194L41.4037 19.3601C41.5553 19.4089 41.7059 19.4644 41.8558 19.5257L41.8322 19.5833C41.9783 19.643 42.1237 19.7082 42.2683 19.7779L42.2954 19.7218C42.439 19.7911 42.5819 19.8647 42.7237 19.9415L42.6941 19.9963C42.8339 20.072 42.973 20.1511 43.1112 20.2324L43.1427 20.1787C43.2809 20.2601 43.4182 20.3437 43.5544 20.4286L43.5214 20.4814C43.6576 20.5662 43.7929 20.6523 43.9272 20.7388L43.9609 20.6865C44.0966 20.7739 44.2313 20.8616 44.3648 20.9486L44.3309 21.0008C44.3984 21.0447 44.4656 21.0886 44.5326 21.1321C44.5996 21.1756 44.6674 21.2189 44.7361 21.2617L44.7691 21.2089C44.9037 21.2929 45.0415 21.3755 45.1818 21.4555L45.1509 21.5096C45.2902 21.5891 45.4321 21.6661 45.5761 21.7398L45.6044 21.6844C45.7471 21.7575 45.8916 21.8273 46.0376 21.8928L46.0121 21.9496C46.16 22.016 46.3094 22.0781 46.4597 22.135L46.4818 22.0768C46.6327 22.1339 46.7846 22.1858 46.9368 22.2313L46.919 22.2909C47.0756 22.3378 47.2328 22.3781 47.3899 22.4108L47.4026 22.3498C47.5613 22.3829 47.7198 22.408 47.8774 22.4242L47.871 22.4861C48.0345 22.5028 48.1973 22.51 48.3587 22.5065L48.3573 22.4442C48.5186 22.4407 48.6782 22.4262 48.8354 22.3996L48.8458 22.4609C49.0069 22.4336 49.1655 22.3937 49.3211 22.3399L49.3008 22.2811C49.4502 22.2294 49.5966 22.1648 49.7392 22.0858L49.7693 22.1403C49.8402 22.1011 49.9102 22.0584 49.9792 22.0122Z"/><path fill="url(#paint7_linear_6151_1064)" d="M-1.99479 14.2262C-2.71328 16.1261 -3.15137 18.1106 -3.30059 20.1203C-3.41207 21.6219 -2.34245 21.865 -1.10351 20.9793C0.211459 20.0407 2.05948 20.708 3.47001 21.5228C4.88053 22.3376 6.44749 23.3002 8.0102 22.8672C9.91165 22.3336 10.6151 20.0154 10.4466 18.0934C10.278 16.1715 9.56081 14.2534 9.90755 12.3542C10.3445 9.93625 12.6763 7.98131 15.1877 7.91895C16.8881 7.87805 18.5116 8.6012 20.2013 8.78816C24.5334 9.26563 25.5701 5.16454 22.0965 3.04295C21.2168 2.50912 20.3172 2.00806 19.3994 1.54077C17.5558 0.60201 15.4332 0.257786 13.4051 0.75355C10.4404 1.4783 7.65005 2.79612 5.21642 4.63582C1.94096 7.11188 -0.557195 10.4342 -1.99479 14.2262Z"/><path stroke="url(#paint8_linear_6151_1064)" stroke-dasharray=".68 .68" stroke-width=".17" d="M-2.91567 12.5069C-2.85413 12.3502 -2.79073 12.1943 -2.72559 12.0393L-2.66788 12.0625C-2.60279 11.9077 -2.53594 11.7538 -2.46728 11.6007L-2.5244 11.5761C-2.4555 11.4224 -2.38479 11.2696 -2.3123 11.1177L-2.25578 11.1436C-2.18343 10.992 -2.10932 10.8413 -2.03346 10.6915L-2.08933 10.6643C-2.01317 10.5139 -1.93527 10.3645 -1.85562 10.216L-1.80043 10.2445C-1.72096 10.0964 -1.63976 9.94928 -1.55684 9.80312L-1.61132 9.77325C-1.52811 9.6266 -1.44319 9.48094 -1.35658 9.33626L-1.30285 9.36738C-1.21644 9.22308 -1.12834 9.07983 -1.03856 8.93755L-1.09152 8.90517C-1.00146 8.76251 -0.909719 8.6209 -0.81632 8.48037L-0.764164 8.51396C-0.671027 8.37381 -0.576232 8.23474 -0.479808 8.09677L-0.531132 8.06194C-0.434424 7.92357 -0.336079 7.78631 -0.236121 7.6502L-0.185655 7.68623C-0.0860037 7.55053 0.0152673 7.41596 0.118124 7.28256L0.0685446 7.24534C0.171675 7.11159 0.276398 6.979 0.382695 6.8476L0.431356 6.88597C0.537293 6.75502 0.644794 6.62525 0.753843 6.49671L0.706123 6.4572C0.815424 6.32835 0.926278 6.20072 1.03866 6.07433L1.08542 6.11494C1.1974 5.98901 1.3109 5.86432 1.4259 5.7409L1.38014 5.69919C1.49536 5.57552 1.61208 5.45313 1.7303 5.33203L1.77505 5.3748C1.8928 5.25417 2.01203 5.13483 2.1327 5.0168L2.08899 4.97299C2.20989 4.85475 2.33224 4.73783 2.45603 4.62226L2.49868 4.66708C2.62192 4.55202 2.74659 4.43829 2.87267 4.32591L2.83111 4.2801C2.95737 4.16756 3.08504 4.05638 3.21411 3.9466L3.25456 3.99338C3.38305 3.88408 3.51292 3.77616 3.64414 3.66965L3.60481 3.62193C3.73615 3.51533 3.86884 3.41013 4.00287 3.30637L4.04106 3.35499C4.10781 3.30331 4.1749 3.25199 4.24231 3.20103C4.30726 3.15193 4.37247 3.10321 4.43792 3.05485L4.40088 3.00537C4.53227 2.90831 4.66467 2.81275 4.79806 2.71871L4.83396 2.76903C4.96708 2.67517 5.10119 2.58282 5.23624 2.492L5.2015 2.44089C5.33708 2.34972 5.4736 2.26009 5.61106 2.172L5.64463 2.22388C5.78178 2.13598 5.91986 2.04962 6.05884 1.96481L6.02647 1.91218C6.16593 1.82708 6.30629 1.74353 6.44753 1.66155L6.47871 1.7149C6.61961 1.63312 6.76138 1.5529 6.904 1.47426L6.87404 1.42023C7.0171 1.34134 7.16102 1.26404 7.30575 1.18832L7.33448 1.24302C7.47883 1.1675 7.624 1.09358 7.76996 1.02125L7.74248 0.965918C7.88886 0.893381 8.03603 0.822452 8.18397 0.753131L8.21019 0.809067C8.35769 0.739949 8.50593 0.672444 8.65494 0.606558L8.62999 0.550048C8.77938 0.483987 8.92953 0.419551 9.08039 0.356756L9.10402 0.413813C9.25439 0.351209 9.40547 0.290241 9.55721 0.230909L9.53483 0.173332C9.68695 0.113857 9.83973 0.0560342 9.99316 -0.000136861L10.0143 0.0579321C10.1672 0.00195249 10.3208 -0.0523805 10.4749 -0.105056L10.4552 -0.163585C10.6096 -0.216375 10.7648 -0.267498 10.9205 -0.316946L10.939 -0.25798C11.0942 -0.307253 11.2499 -0.354858 11.4062 -0.400784L11.3891 -0.46015C11.5457 -0.506168 11.7029 -0.550508 11.8606 -0.593152L11.8764 -0.533409C12.0335 -0.575888 12.1912 -0.616689 12.3493 -0.655794L12.3348 -0.715881C12.4932 -0.755057 12.6522 -0.792537 12.8116 -0.828311L12.8247 -0.767906C12.9041 -0.785727 12.9836 -0.803127 13.0632 -0.820095C13.1424 -0.836959 13.2216 -0.852335 13.301 -0.86625L13.2908 -0.92724C13.4518 -0.95546 13.6132 -0.977695 13.7749 -0.994116L13.7805 -0.932497C13.9413 -0.94883 14.1024 -0.959355 14.2633 -0.964212L14.2621 -1.02613C14.4249 -1.03104 14.5877 -1.03022 14.7501 -1.02381L14.7468 -0.96192C14.9079 -0.955564 15.0686 -0.943672 15.2288 -0.926398L15.2363 -0.987979C15.3977 -0.970568 15.5586 -0.947731 15.7186 -0.919637L15.7069 -0.858641C15.8653 -0.830832 16.0228 -0.797821 16.1792 -0.759761L16.1948 -0.819931C16.3522 -0.781646 16.5084 -0.738308 16.6633 -0.690063L16.6439 -0.630955C16.7971 -0.58324 16.949 -0.530685 17.0992 -0.473442L17.1223 -0.531286C17.2733 -0.473764 17.4227 -0.411555 17.5703 -0.344816L17.5437 -0.28842C17.6168 -0.255382 17.6893 -0.221216 17.7614 -0.185957C17.8317 -0.1516 17.9018 -0.117052 17.9719 -0.0823011L18.0004 -0.13775C18.1407 -0.068145 18.2806 0.00224262 18.4201 0.0734068L18.3909 0.128539C18.5301 0.199604 18.669 0.271447 18.8074 0.344066L18.8372 0.289257C18.9759 0.361985 19.114 0.435491 19.2518 0.509773L19.2214 0.564254C19.359 0.638421 19.4961 0.713359 19.6328 0.789069L19.6639 0.734927C19.8007 0.810746 19.9372 0.887337 20.0733 0.964693L20.0416 1.0185C20.1774 1.09573 20.3128 1.17373 20.4477 1.25249L20.4799 1.19904C20.6151 1.27792 20.7497 1.35756 20.8839 1.43795L20.851 1.49105C20.918 1.53117 20.9848 1.57148 21.0516 1.61197C21.126 1.65744 21.1983 1.7038 21.2686 1.75101L21.3041 1.69964C21.4513 1.79859 21.5895 1.90126 21.7187 2.00703L21.6785 2.05496C21.8145 2.16625 21.9404 2.28095 22.0563 2.39833L22.1013 2.35476C22.2259 2.48092 22.3393 2.61025 22.4416 2.74188L22.3918 2.78001C22.4987 2.91757 22.5933 3.05756 22.6756 3.19896L22.73 3.16754C22.8191 3.3206 22.8944 3.47545 22.956 3.63085L22.8977 3.65406C22.9615 3.81511 23.0103 3.97658 23.0443 4.13706L23.1056 4.12363C23.1421 4.29568 23.1621 4.46681 23.1659 4.63535L23.1033 4.63747C23.1072 4.80837 23.094 4.97636 23.0641 5.13965L23.1257 5.14999C23.0944 5.32102 23.0452 5.4872 22.9787 5.6465L22.9209 5.62339C22.8562 5.77822 22.7744 5.9264 22.6761 6.06601L22.7273 6.10103C22.629 6.24063 22.5146 6.37187 22.3843 6.4929L22.3417 6.44797C22.2207 6.56043 22.0854 6.66402 21.9362 6.75713L21.9691 6.80942C21.8261 6.89865 21.6708 6.97837 21.5033 7.04724L21.4799 6.99008C21.3275 7.05277 21.1646 7.1064 20.9914 7.1499L21.0062 7.20993C20.844 7.25067 20.6731 7.2826 20.4937 7.30494L20.4866 7.24348C20.322 7.26397 20.1499 7.27628 19.9704 7.27972L19.9709 7.34165C19.8039 7.34485 19.6308 7.34046 19.4517 7.32796L19.4568 7.26617C19.3717 7.26024 19.2851 7.25246 19.1972 7.24277C19.1133 7.23349 19.0296 7.22286 18.946 7.21107L18.9364 7.27239C18.7681 7.24867 18.6005 7.22024 18.4333 7.1884L18.4458 7.12756C18.2799 7.09597 18.1142 7.06098 17.9487 7.02385L17.9342 7.08427C17.7686 7.04711 17.6033 7.00787 17.4381 6.9678L17.4537 6.90762C17.3465 6.88163 17.2395 6.85531 17.1324 6.82898C17.0746 6.81477 17.0168 6.80055 16.9589 6.78637L16.9432 6.84651C16.778 6.80605 16.6129 6.76606 16.4476 6.72782L16.4625 6.66749C16.2963 6.62902 16.1297 6.59227 15.9628 6.55857L15.9496 6.61927C15.7826 6.58556 15.6153 6.55494 15.4477 6.52871L15.4582 6.46752C15.2888 6.44103 15.1189 6.41896 14.9482 6.4027L14.9415 6.46435C14.7722 6.44821 14.6022 6.43784 14.4316 6.43455L14.4336 6.37262C14.3477 6.37097 14.2615 6.3711 14.1752 6.37318C14.0854 6.37541 13.9959 6.38002 13.9066 6.38696L13.9108 6.44872C13.7338 6.46248 13.558 6.4855 13.384 6.51728L13.3734 6.45636C13.1968 6.48862 13.022 6.5298 12.8497 6.57934L12.8665 6.63881C12.6961 6.68785 12.528 6.7452 12.3631 6.81034L12.3405 6.75285C12.1737 6.81874 12.01 6.89251 11.85 6.97363L11.8781 7.0287C11.7198 7.10893 11.5653 7.19645 11.4151 7.29073L11.3821 7.23852C11.2302 7.33385 11.0827 7.43602 10.9402 7.54451L10.978 7.59345C10.8368 7.70088 10.7007 7.81458 10.5701 7.93403L10.5279 7.88876C10.3956 8.00971 10.269 8.1365 10.1487 8.26861L10.1949 8.3098C10.0756 8.44077 9.96253 8.57703 9.8563 8.71804L9.80631 8.68139C9.6986 8.82432 9.5979 8.97212 9.5048 9.12424L9.55819 9.15591C9.46597 9.30661 9.38129 9.46157 9.30488 9.62026L9.24843 9.59417C9.17103 9.75487 9.10189 9.91941 9.04172 10.0872L9.10068 10.1073C9.04139 10.2727 8.99096 10.4413 8.94993 10.6125L8.88905 10.5989C8.86837 10.6853 8.85005 10.7724 8.83424 10.8601M-2.91567 12.5069L8.89583 10.8703M-2.91567 12.5069L-2.85736 12.5287C-2.88799 12.6068 -2.91818 12.685 -2.94794 12.7635M-2.91567 12.5069L-3.09459 12.9795L-3.03573 12.9999C-3.00696 12.9209 -2.9777 12.8421 -2.94794 12.7635M8.83424 10.8601L8.89583 10.8703M8.83424 10.8601C8.81953 10.9407 8.80673 11.0212 8.79568 11.1018L8.85771 11.1095C8.86859 11.0297 8.88128 10.95 8.89583 10.8703M-2.94794 12.7635L-3.00652 12.7423M6.98229 21.3237C7.05962 21.3021 7.13488 21.2773 7.20813 21.2498L7.22976 21.3076C7.15473 21.3359 7.07765 21.3612 6.99849 21.3834M6.98229 21.3237C6.90443 21.3453 6.82657 21.3633 6.74871 21.378L6.75973 21.4389C6.83931 21.4239 6.91891 21.4054 6.99849 21.3834M6.98229 21.3237C6.98222 21.3238 6.98235 21.3237 6.98229 21.3237ZM6.98229 21.3237L6.99849 21.3834M8.81214 11.5908L8.74962 11.5882C8.74076 11.7507 8.73813 11.9132 8.7407 12.0756L8.80328 12.0739C8.80076 11.9128 8.80334 11.7517 8.81214 11.5908ZM8.82538 12.5563L8.76297 12.5615C8.77484 12.7225 8.79086 12.8836 8.81012 13.0446L8.87226 13.0366C8.85311 12.8764 8.8372 12.7163 8.82538 12.5563ZM8.93773 13.5146L8.87587 13.5246C8.90015 13.6837 8.92663 13.8428 8.95442 14.0018L9.01606 13.9906C8.98838 13.8319 8.96196 13.6732 8.93773 13.5146ZM9.10167 14.4653L9.04013 14.4771C9.05112 14.5368 9.06217 14.5963 9.07317 14.656C9.09144 14.7544 9.10965 14.8528 9.1277 14.9513L9.18924 14.9396C9.17119 14.841 9.15298 14.7423 9.13471 14.6438C9.12366 14.5842 9.11266 14.5248 9.10167 14.4653ZM9.27359 15.4145L9.21189 15.4255C9.23885 15.5839 9.26434 15.7422 9.28743 15.9005L9.34935 15.8909C9.32615 15.7321 9.30061 15.5733 9.27359 15.4145ZM9.41105 16.3695L9.34885 16.3769C9.35761 16.4565 9.36554 16.5361 9.37248 16.6157C9.37938 16.694 9.38479 16.7729 9.38868 16.8525L9.4512 16.8487C9.44726 16.7685 9.44179 16.6887 9.43484 16.6096C9.42784 16.5295 9.41986 16.4495 9.41105 16.3695ZM9.45694 17.3287L9.39442 17.3279C9.39043 17.4857 9.38069 17.6444 9.36494 17.8027L9.42724 17.8081C9.4431 17.6482 9.45295 17.488 9.45694 17.3287ZM9.36155 18.2843L9.2999 18.2743C9.272 18.4313 9.23798 18.5867 9.19767 18.7396L9.25816 18.7545C9.29897 18.6 9.33338 18.4429 9.36155 18.2843ZM9.11458 19.2146L9.05572 19.1942C9.00091 19.3449 8.93926 19.4915 8.87067 19.633L8.92701 19.6592C8.99664 19.5157 9.05906 19.3671 9.11458 19.2146ZM8.69126 20.0813L8.63853 20.0486C8.5521 20.1835 8.45791 20.3113 8.35584 20.4308L8.40343 20.4705C8.50747 20.3487 8.60335 20.2185 8.69126 20.0813ZM8.06135 20.814L8.02074 20.7673C7.90073 20.87 7.77236 20.9628 7.63544 21.0443L7.6672 21.0973C7.80737 21.0139 7.93868 20.919 8.06135 20.814ZM6.27352 21.4899L6.27272 21.4279C6.11316 21.4318 5.95359 21.4234 5.79415 21.4042L5.7859 21.4658C5.94809 21.4852 6.1107 21.4938 6.27352 21.4899ZM5.3064 21.3779L5.322 21.3178C5.16787 21.2804 5.01407 21.2343 4.86071 21.1814L4.83949 21.2399C4.99446 21.2934 5.15015 21.34 5.3064 21.3779ZM4.38604 21.0641L4.41143 21.0072C4.26466 20.9444 4.11855 20.8766 3.97322 20.8051L3.94485 20.8606C4.091 20.9325 4.23811 21.0008 4.38604 21.0641ZM3.51342 20.6378L3.54382 20.5833C3.40169 20.5068 3.26056 20.4281 3.12052 20.3485L3.0889 20.4024C3.22922 20.4821 3.37077 20.561 3.51342 20.6378ZM2.66817 20.1605L2.70024 20.1069L2.65642 20.0815C2.60084 20.0493 2.54545 20.0172 2.49031 19.9854C2.42075 19.9452 2.35014 19.9054 2.27856 19.8661L2.24771 19.9204C2.31889 19.9594 2.38911 19.999 2.45829 20.039C2.51389 20.0711 2.56974 20.1034 2.62581 20.1359C2.63992 20.1441 2.65404 20.1523 2.66817 20.1605ZM1.81809 19.6973L1.84631 19.6417C1.70082 19.5707 1.55254 19.5028 1.40232 19.4395L1.37724 19.4966C1.52632 19.5594 1.67355 19.6267 1.81809 19.6973ZM0.924659 19.3228L0.945893 19.2643C0.790382 19.2106 0.633651 19.1628 0.476592 19.1223L0.460161 19.1823C0.615447 19.2223 0.770575 19.2695 0.924659 19.3228ZM-0.015545 19.0838L-0.0052342 19.0226C-0.17023 18.9972 -0.334717 18.9815 -0.497629 18.977L-0.500118 19.0389C-0.340083 19.0433 -0.178216 19.0588 -0.015545 19.0838ZM-0.986758 19.0619L-0.994072 19.0005C-1.15991 19.0217 -1.32287 19.0571 -1.48167 19.1085L-1.46286 19.1674C-1.30807 19.1173 -1.14898 19.0827 -0.986758 19.0619ZM-1.90926 19.3638L-1.93996 19.3102C-2.01181 19.351 -2.08235 19.3961 -2.15142 19.4453C-2.22778 19.4999 -2.30342 19.5501 -2.37803 19.5958L-2.34554 19.6484C-2.26959 19.6018 -2.19274 19.5509 -2.11522 19.4954C-2.04792 19.4474 -1.97922 19.4036 -1.90926 19.3638ZM-2.84078 19.8944L-2.86228 19.8364C-3.04892 19.9062 -3.22286 19.9426 -3.37958 19.9467L-3.3787 20.0086C-3.21351 20.0044 -3.03256 19.966 -2.84078 19.8944ZM-3.90234 19.8723L-3.867 19.8207C-3.99588 19.7351 -4.09909 19.6039 -4.16714 19.4222L-4.22583 19.4444C-4.15396 19.6362 -4.04335 19.7786 -3.90234 19.8723ZM-4.31948 18.9097L-4.2569 18.9073C-4.25914 18.8236 -4.2569 18.7346 -4.2499 18.6403C-4.24372 18.5568 -4.23699 18.4733 -4.22983 18.39L-4.29213 18.3854C-4.29935 18.4691 -4.30608 18.5528 -4.31231 18.6365C-4.31948 18.7327 -4.32172 18.8237 -4.31948 18.9097ZM-4.24279 17.8839L-4.1806 17.8899C-4.16222 17.7233 -4.14181 17.5571 -4.11939 17.391L-4.18142 17.3836C-4.2039 17.5501 -4.22436 17.7168 -4.24279 17.8839ZM-4.10806 16.8846L-4.04625 16.8936C-4.01983 16.728 -3.9915 16.5628 -3.96114 16.3979L-4.02268 16.3875C-4.05315 16.5528 -4.08159 16.7186 -4.10806 16.8846ZM-3.92542 15.8923L-3.8641 15.9041C-3.82981 15.74 -3.79354 15.5762 -3.75531 15.4127L-3.81624 15.3994C-3.85459 15.5633 -3.89102 15.7276 -3.92542 15.8923ZM-3.69525 14.9092L-3.63464 14.9239C-3.59252 14.7615 -3.54838 14.5995 -3.50232 14.4379L-3.56255 14.4217C-3.60877 14.5838 -3.65296 14.7463 -3.69525 14.9092ZM-3.41814 13.9375L-3.35835 13.9551C-3.30841 13.7948 -3.25656 13.6349 -3.20279 13.4757L-3.26208 13.4566C-3.31607 13.6164 -3.36803 13.7767 -3.41814 13.9375Z"/></g></g><defs><linearGradient id="paint0_linear_6151_1064" x1="22.746" x2="22.285" y1="7.672" y2="23.779" gradientUnits="userSpaceOnUse"><stop stop-color="#27B2FF"/><stop offset="1" stop-color="#197BFF"/></linearGradient><linearGradient id="paint1_linear_6151_1064" x1="22.746" x2="22.285" y1="7.672" y2="23.779" gradientUnits="userSpaceOnUse"><stop stop-color="#27B2FF"/><stop offset="1" stop-color="#197BFF"/></linearGradient><radialGradient id="paint2_radial_6151_1064" cx="0" cy="0" r="1" gradientTransform="translate(22.3345 22.3326) rotate(90) scale(27.2079)" gradientUnits="userSpaceOnUse"><stop stop-color="#fff"/><stop offset="1" stop-color="#959FD5" stop-opacity="0"/></radialGradient><radialGradient id="paint3_radial_6151_1064" cx="0" cy="0" r="1" gradientTransform="translate(22.3345 22.3326) rotate(90) scale(27.2079 27.2079)" gradientUnits="userSpaceOnUse"><stop stop-color="#fff"/><stop offset="1" stop-color="#959FD5" stop-opacity="0"/></radialGradient><linearGradient id="paint4_linear_6151_1064" x1="36.658" x2="25.735" y1="36.349" y2="23.198" gradientUnits="userSpaceOnUse"><stop stop-color="#0061E3" stop-opacity="0"/><stop offset="1" stop-color="#197BFF"/></linearGradient><linearGradient id="paint5_linear_6151_1064" x1="49.851" x2="25.397" y1="17.981" y2="47.335" gradientUnits="userSpaceOnUse"><stop stop-color="#12C45A"/><stop offset="1" stop-color="#5FED98"/></linearGradient><linearGradient id="paint6_linear_6151_1064" x1="49.702" x2="27.693" y1="20.169" y2="46.588" gradientUnits="userSpaceOnUse"><stop stop-color="#fff"/><stop offset="1" stop-color="#D9FFE8"/></linearGradient><linearGradient id="paint7_linear_6151_1064" x1=".356" x2="17.818" y1="22.876" y2=".476" gradientUnits="userSpaceOnUse"><stop stop-color="#12C45A"/><stop offset="1" stop-color="#5FED98"/></linearGradient><linearGradient id="paint8_linear_6151_1064" x1="-.836" x2="15.766" y1="21.405" y2="-.081" gradientUnits="userSpaceOnUse"><stop stop-color="#fff"/><stop offset="1" stop-color="#D9FFE8"/></linearGradient></defs></svg>