<svg width="23" height="22" viewBox="0 0 23 22" fill="none" xmlns="http://www.w3.org/2000/svg">
<path d="M3.96549 9.26318L3.49609 9.46219C3.49606 9.58115 3.54182 9.69922 3.63111 9.78817L11.0293 17.1605C11.1156 17.2465 11.2639 17.2937 11.351 17.2941C11.4394 17.2945 11.5907 17.2479 11.6786 17.1604L19.0755 9.78344C19.1645 9.69462 19.2103 9.57685 19.2104 9.45811L18.8022 9.26321C18.5747 9.26321 16.4609 9.26321 13.8926 9.26321L11.1387 10.1522L8.80949 9.26321C6.39359 9.26318 4.38137 9.26318 3.96549 9.26318Z" fill="#FFB739"/>
<path d="M19.2125 9.45814C19.2125 9.57676 19.1668 9.6945 19.0776 9.78338L11.6807 17.1603C11.5937 17.2474 11.4437 17.294 11.3555 17.294V10.0829L13.8949 9.26318H18.8045L19.2125 9.45814Z" fill="#FF9441"/>
<path d="M8.80859 9.26318L11.3524 17.294L13.8917 9.26318H8.80859Z" fill="#FF9441"/>
<path d="M13.8949 9.26318L11.3555 17.294V9.26318H13.8949Z" fill="#FF7149"/>
<path d="M19.1332 9.20387L16.6709 5.51462C16.6368 5.46361 16.5929 5.42027 16.5424 5.38682L16.3192 5.49399L11.7792 5.52229L11.3532 5.31006L11.009 5.52708L6.47919 5.55532L6.16309 5.38728C6.11291 5.42064 6.06917 5.46382 6.03517 5.51487L3.57304 9.20875C3.5212 9.28652 3.49609 9.37525 3.49609 9.46349C4.38803 9.46325 18.0583 9.45966 19.2103 9.45935C19.2104 9.37086 19.1852 9.28183 19.1332 9.20387Z" fill="#FFD17E"/>
<path d="M19.2125 9.45944C18.6417 9.45944 14.9963 9.46067 11.3555 9.46159V5.31006L11.7816 5.52217L16.3215 5.49396L16.5446 5.38667C16.5952 5.4204 16.639 5.46361 16.6731 5.5145L19.1355 9.20375C19.1876 9.28195 19.2128 9.37083 19.2125 9.45944Z" fill="#FFB739"/>
<path d="M6.41471 5.31006C6.32276 5.31006 6.23455 5.33771 6.16016 5.38722L8.88731 9.46208H8.88762L11.35 5.31006H6.41471Z" fill="#FFB739"/>
<path d="M13.8191 9.46076L16.5447 5.38673C16.4704 5.33753 16.3825 5.31006 16.2908 5.31006H11.3555L13.8171 9.46079H13.8191V9.46076Z" fill="#FF9441"/>
</svg>
